<svg width="136" height="44" viewBox="0 0 136 44" fill="none" xmlns="http://www.w3.org/2000/svg">
<g clip-path="url(#clip0_3_9)">
<path d="M56.61 20V-0.0100017H65.803C68.761 -0.0100017 70.24 1.469 70.24 4.427V6.428C70.24 7.08533 70.0467 7.646 69.66 8.11L68.645 9.328L69.863 10.343C70.501 10.865 70.82 11.6383 70.82 12.663V15.563C70.82 18.521 69.341 20 66.383 20H56.61ZM59.046 17.796H66.412C67.7267 17.796 68.384 17.1387 68.384 15.824V12.576C68.384 11.2613 67.7267 10.604 66.412 10.604H59.046V17.796ZM59.046 8.4H65.832C67.1467 8.4 67.804 7.74267 67.804 6.428V4.166C67.804 2.85133 67.1467 2.194 65.832 2.194H59.046V8.4ZM74.8671 15.882V-1.46H77.1871V16.114C77.1871 17.448 77.8638 18.1537 79.2171 18.231V20.232C76.3171 20.232 74.8671 18.782 74.8671 15.882ZM86.0833 20C83.164 20 81.7043 18.5403 81.7043 15.621C81.7043 12.7017 83.164 11.242 86.0833 11.242H91.3903V8.98C91.3903 7.62667 90.7136 6.95 89.3603 6.95H83.1543V5.79L84.3143 4.92H89.3603C92.2603 4.92 93.7103 6.37 93.7103 9.27V20H86.0833ZM84.0243 15.94C84.0243 17.2933 84.701 17.97 86.0543 17.97H91.3903V13.127H86.0543C84.701 13.127 84.0243 13.8037 84.0243 15.157V15.94ZM98.0021 15.65V9.27C98.0021 6.37 99.4521 4.92 102.352 4.92H108.036L109.196 5.79V6.95H102.352C100.999 6.95 100.322 7.62667 100.322 8.98V15.94C100.322 17.2933 100.999 17.97 102.352 17.97H109.196V19.13L108.036 20H102.352C99.4521 20 98.0021 18.55 98.0021 15.65ZM112.847 20V-1.46H115.167V12.605L122.156 4.92H124.418L124.621 5.355L119.227 11.242L125.027 19.565L124.824 20H122.562L117.69 12.924L115.167 15.65V20H112.847ZM56.61 44V23.99H65.803C68.761 23.99 70.24 25.469 70.24 28.427V30.428C70.24 31.0853 70.0467 31.646 69.66 32.11L68.645 33.328L69.863 34.343C70.501 34.865 70.82 35.6383 70.82 36.663V39.563C70.82 42.521 69.341 44 66.383 44H56.61ZM59.046 41.796H66.412C67.7267 41.796 68.384 41.1387 68.384 39.824V36.576C68.384 35.2613 67.7267 34.604 66.412 34.604H59.046V41.796ZM59.046 32.4H65.832C67.1467 32.4 67.804 31.7427 67.804 30.428V28.166C67.804 26.8513 67.1467 26.194 65.832 26.194H59.046V32.4ZM74.7511 39.65V33.27C74.7511 30.37 76.2011 28.92 79.1011 28.92H83.1611C86.0611 28.92 87.5111 30.37 87.5111 33.27V39.65C87.5111 42.55 86.0611 44 83.1611 44H79.1011C76.2011 44 74.7511 42.55 74.7511 39.65ZM77.0711 39.94C77.0711 41.2933 77.7478 41.97 79.1011 41.97H83.1611C84.5144 41.97 85.1911 41.2933 85.1911 39.94V32.98C85.1911 31.6267 84.5144 30.95 83.1611 30.95H79.1011C77.7478 30.95 77.0711 31.6267 77.0711 32.98V39.94ZM90.4686 43.565L95.8046 36.315L90.6716 29.355L90.8746 28.92H93.0206L97.1386 34.633L101.257 28.92H103.403L103.606 29.355L98.5016 36.315L103.809 43.565L103.606 44H101.46L97.1386 37.997L92.8176 44H90.6716L90.4686 43.565Z" fill="white"/>
<rect width="44" height="44" fill="white"/>
</g>
<defs>
<clipPath id="clip0_3_9">
<rect width="136" height="44" fill="white"/>
</clipPath>
</defs>
</svg>
